<svg xmlns="http://www.w3.org/2000/svg" width="32" height="32" viewBox="0 0 32 32"><defs><style>.a{fill:none;}.b{opacity:0.75;}.c{fill:#fff;}</style></defs><g transform="translate(-98 -724)"><rect class="a" width="32" height="32" transform="translate(98 724)"/><g class="b" transform="translate(104 729.567)"><path class="c" d="M18.411.433H1.591A1.632,1.632,0,0,0,0,2.1V18.769a1.628,1.628,0,0,0,1.591,1.664h16.82A1.628,1.628,0,0,0,20,18.769V2.1A1.631,1.631,0,0,0,18.411.433ZM2.6,1.63H17.4A1.436,1.436,0,0,1,18.8,3.1V6.4H1.2V3.1A1.434,1.434,0,0,1,2.6,1.63ZM6.9,8.058H18.8v4.4H6.894ZM1.2,17.769V8.058H5.342V19.237H2.6a1.433,1.433,0,0,1-1.4-1.468Zm16.2,1.468H6.894V14.119H18.8V17.77a1.435,1.435,0,0,1-1.4,1.467Z"/></g></g></svg>