<svg xmlns="http://www.w3.org/2000/svg" width="17" height="16.979" viewBox="0 0 17 16.979"><defs><style>.a{opacity:0.75;}.b{fill:#fff;}</style></defs><g class="a" transform="translate(0.011 0.003)"><g transform="translate(-0.011 6.114)"><path class="b" d="M16.37,172.445H6.584a2.418,2.418,0,0,0-2.934-1.7,2.386,2.386,0,0,0-1.743,1.7H.609a.593.593,0,1,0,0,1.185h1.3a2.425,2.425,0,0,0,2.934,1.7,2.386,2.386,0,0,0,1.743-1.7H16.37a.593.593,0,1,0,0-1.184Z" transform="translate(0.011 -170.665)"/></g><g transform="translate(-0.011 -0.003)"><path class="b" d="M16.37,1.778h-1.9a2.418,2.418,0,0,0-2.934-1.7,2.386,2.386,0,0,0-1.743,1.7H.609a.593.593,0,1,0,0,1.185H9.788a2.418,2.418,0,0,0,2.934,1.7,2.386,2.386,0,0,0,1.743-1.7h1.9a.593.593,0,1,0,0-1.185Z" transform="translate(0.011 0.003)"/></g><g transform="translate(-0.011 12.231)"><path class="b" d="M16.37,343.112H13.253a2.417,2.417,0,0,0-2.934-1.7,2.386,2.386,0,0,0-1.743,1.7H.609a.593.593,0,1,0,0,1.185H8.575a2.417,2.417,0,0,0,2.934,1.7,2.386,2.386,0,0,0,1.743-1.7H16.37a.593.593,0,1,0,0-1.184Z" transform="translate(0.011 -341.332)"/></g></g></svg>