<svg xmlns="http://www.w3.org/2000/svg" width="60" height="58" viewBox="0 0 60 58"><defs><style>.a{fill:none;}.b{fill:#fff;}</style></defs><g transform="translate(-0.022 -0.188)"><rect class="a" width="60" height="58" transform="translate(0.022 0.188)"/><path class="b" d="M82.007,260.858a70.441,70.441,0,0,0,2.14-14.447c.056-3.7-.275-7.854-3.474-10.819a15.237,15.237,0,0,0-9.815-3.606c-5.641-1.3-10.064.009-14.6,2.7a12.166,12.166,0,0,0-6.611,9.549,53.347,53.347,0,0,0,1.485,16.568c-1.548.085-3.352.324-3.835,1.31a3.64,3.64,0,0,0,.2,2.391c.443.776,1.4.725,1.889,1.318.743.9.045,3.5-.095,4.436a14.372,14.372,0,0,0-.114,4.182c.245,1.727.517,4.211,3.11,4.695,7.744,1.444,5.2-7.243,4.176-10.183a16.218,16.218,0,0,1-.662-1.809c-.484-2.24-.072-1.552.8-2.856a2.256,2.256,0,0,0,.427-2.03c-.383-1.993-2.109-1.525-4.374-1.518h-.138a70.955,70.955,0,0,1-1.456-10.155c-.2-3.041-.494-6.377.632-9.333.034-.089.084-.169.121-.255a12.071,12.071,0,0,0,.992,9.79c3.561,6.224,12.824,7.49,20.352,4.978,3.577-1.2,6.94-2.891,8.221-5.9A13.041,13.041,0,0,0,81.2,238.94a12.65,12.65,0,0,0-3.732-4.011,9.162,9.162,0,0,1,3.611,3.176c2.053,3.336,1.834,7.307,1.562,10.9a80.565,80.565,0,0,1-2,11.732s0,.011,0,.017c-1.881-.133-3.927-.2-4.521,1.343a2.936,2.936,0,0,0-.028,2.322c.688,1.108,1.331.582,1.392,1.944.138,2.948-5.269,12.27,1.771,12.78,6.825.494,5.209-7.013,4.62-10.341-.168-.951-.6-2.317.1-3.227.275-.351.893-.515,1.165-.861a3.247,3.247,0,0,0,.55-2.142C85.555,260.877,83.831,260.99,82.007,260.858Zm-26.468,1.019c1.011.626-.319,1.889-.66,2.413-.688,1.048-.893,1.023-.634,2.322.466,2.341,1.413,4.551,1.807,6.927.182,1.092.843,2.64-.066,3.652a3.346,3.346,0,0,1-3.715.565c-2.349-1-1.955-4.769-1.73-6.643.2-1.633.921-3.736.231-5.358-.4-.937-.56-.485-1.346-1.2-2.411-2.2.982-2.632,3.217-2.723.68,0,2.347-.3,2.9.048Zm12.2-28.759a16,16,0,0,1,4.272,1.032c4.4,1.742,6.927,4.517,6.563,8.48a9.26,9.26,0,0,1-7.169,8.493c-3.957.962-10.262.836-12.688-2.246-2.028-2.576-1.851-6.655-.594-9.391a11.9,11.9,0,0,1,9.615-6.368ZM80.3,248.831c-2.042,5.969-11.8,7.772-18.606,6.628-7.981-1.339-10.394-8.974-8.475-14.469a12.7,12.7,0,0,1,10.021-7.705,12.493,12.493,0,0,0-4.733,3.235c-4.559,5.2-3.853,14.72,5.467,15.971,4.16.558,9.081.077,12.166-2.366a10.64,10.64,0,0,0,3.754-9.779,6.768,6.768,0,0,0-.275-1.073,11.645,11.645,0,0,1,.681,9.559Zm2.934,15.792a2.69,2.69,0,0,0-.97,2.952c.217,1.993,2.548,11.286-2.773,10.5-5.083-.759-.771-9.16-.63-11.7a2.132,2.132,0,0,0-.471-1.727c-.413-.664-1.955-1.748-.783-2.657.542-.42,3.2-.121,3.934-.072,2.856.283,3.229,1.035,1.692,2.71Z" transform="translate(-36.539 -226.163)"/></g></svg>