<svg xmlns="http://www.w3.org/2000/svg" width="59" height="58" viewBox="0 0 59 58"><defs><style>.a{fill:none;}.b{fill:#fff;stroke:#fff;stroke-width:0.5px;}</style></defs><g transform="translate(0.306 -0.116)"><rect class="a" width="59" height="58" transform="translate(-0.306 0.116)"/><g transform="translate(5.318 7.971)"><path class="b" d="M368.613,160.453c-3.273-4.177-11.879-4.886-14.1.4a8.53,8.53,0,0,0-4.1-3.017,9.767,9.767,0,0,0-10.531,2.5c.012-.2.04-.391.04-.6,0-3.5-.1-7.572,1.154-10.934a5.4,5.4,0,0,0,3.737,1.3c2.79-.133,5.419-.359,6.536-3.368a8.342,8.342,0,0,0-2.088-8.181c-1.359-1.479-1.871-1.518-3.841-1.4a47.994,47.994,0,0,0-5.806.569c-3.208.586-5.867,5.59-7.409,8.269-4.591,7.971-8.819,16.721-9.5,26.056a.58.58,0,0,0,.282.5c12.144,8.136,30.08,9.921,42.778,1.849C370.389,171.46,372.26,165.106,368.613,160.453Zm-3.8,13.152a37.828,37.828,0,0,1-22.393,4.589,41.058,41.058,0,0,1-11.319-2.657,37.623,37.623,0,0,1-5.713-2.822c-2.316-1.4-1.2-4.282-.664-6.583a60,60,0,0,1,4.9-12.8,61.328,61.328,0,0,1,6.809-11.537,8.9,8.9,0,0,1,2.731-2.6,12.826,12.826,0,0,1,4.86-.808c1.44-.1,2.9-.32,4.144.679a7.373,7.373,0,0,1,2.157,3.691c.428,1.681.3,4.068-1.2,5.19a7.382,7.382,0,0,1-3.809.941,6.156,6.156,0,0,1-1.18.1c-1.024-.133-2.832-1.278-1.917-2.584.392-.559,2.054-.829,2.681-.812.733.02.733-1.139,0-1.158-1.372-.037-4.292.788-4.482,2.547a2.308,2.308,0,0,0,0,.437,22.5,22.5,0,0,0-1.533,8.424c-.069,1.553.029,3.137-.085,4.682-.213,2.882-2.176,5.181-4.125,7.174-.517.531.287,1.348.805.818a14.747,14.747,0,0,0,4.093-6.195.531.531,0,0,0,.133-.108c2.7-3.295,6.555-4.817,10.628-3.175a6.442,6.442,0,0,1,3.77,3.454c.166.493.987.606,1.1,0,1.2-6.557,11.027-4.755,13.32.072,2.051,4.336.165,8.736-3.724,11.043Z" transform="translate(-322.713 -137.114)"/><path class="b" d="M356.078,174.79a7.42,7.42,0,0,1-5.9,2.143,12.185,12.185,0,0,1-6.415-1.8c-.606-.412-1.174.573-.574.98a14.016,14.016,0,0,0,7.724,1.993,8.249,8.249,0,0,0,5.97-2.512C357.43,175.109,356.624,174.309,356.078,174.79Z" transform="translate(-326.395 -143.389)"/></g></g></svg>