<svg xmlns="http://www.w3.org/2000/svg" width="59" height="58" viewBox="0 0 59 58">
    <defs>
        <style>.a{fill:none;}.b{fill:#fff;}</style>
    </defs>
    <g transform="translate(0.392 -0.188)">
        <rect class="a" width="59" height="58" transform="translate(-0.392 0.188)"/>
        <g transform="translate(7.975 7.969)">
            <path class="b" d="M459.278,51.647c-2.981-3.4-8.424-2.076-12.457-2.126a8.651,8.651,0,0,0-6.51-3.321,8.073,8.073,0,0,0-6.809,3.482c-2.846-.024-5.75-.231-8.583,0a5.713,5.713,0,0,0-4.118,1.663,8.012,8.012,0,0,0-1.585,4.642c-.166,2.447-.154,4.947-.246,7.4-.1,2.738.11,5.473.045,8.214-.077,3.2-.315,6.4-.145,9.594.142,2.648.484,6.213,3.525,6.876,5.087,1.109,10.95.45,16.123.371,5.512-.085,11.039.311,16.544-.066,4.128-.283,5.9-1.367,5.921-5.746.023-5.771-.023-11.545.07-17.317C461.114,61.158,462.26,55.05,459.278,51.647Zm-18.967-4.332c3.648.411,6.51,2.292,6.678,6.244a6.908,6.908,0,0,1-6.789,7.527,7.174,7.174,0,0,1-6.988-6.976,6.945,6.945,0,0,1,7.1-6.793Zm19.67,15.856c-.084,4.351-.1,8.7-.113,13.054v6a8.7,8.7,0,0,1-.21,3c-.852,2.088-3.287,1.966-5.067,2.072-4.137.248-8.286.061-12.426.021s-8.3.185-12.448.078a49.559,49.559,0,0,1-5.978-.31c-2.6-.392-3.321-2.147-3.644-4.416-.643-4.462.09-9.128.044-13.617-.044-4.251-.029-8.51.169-12.764.166-3.551,1.953-5.371,5.56-5.531,2.317-.1,4.65,0,6.977.031a7.468,7.468,0,0,0-.745,2.9,8.441,8.441,0,0,0,8.157,8.606,8.075,8.075,0,0,0,7.847-8.281,8.768,8.768,0,0,0-.685-3.39c1.351-.009,2.7-.078,4.052-.049,1.759.039,4.149-.287,5.679.664C460.921,53.567,460.055,59.359,459.98,63.171Z" transform="translate(-418.81 -46.199)"/>
            <path class="b" d="M444.235,55.988a1.317,1.317,0,0,0,2.011-.17,1.415,1.415,0,0,0,.015-1.71.446.446,0,0,0-.061-.178c.3-.822.593-1.647.885-2.472.239-.678-.837-.968-1.073-.3q-.418,1.182-.846,2.363C443.927,53.555,442.949,55.018,444.235,55.988Zm.963-1.364a.564.564,0,0,0,.139.062c.009.008.013.019.023.025.339.247-.266.871-.559.288-.148-.283.139-.4.4-.38Z" transform="translate(-423.934 -47.118)"/>
            <path class="b" d="M457.46,72.211c.061-1.76.424-4.217-.178-5.907a2.985,2.985,0,0,0-2.491-2.01,11.182,11.182,0,0,0-5.274.356c-.616.319-1.077,1.2-1.572,1.65a9.875,9.875,0,0,1-3.958,2.072,10.5,10.5,0,0,1-9.857-2.614c-1.594-1.44-6.014-1.477-7.85-.573-2.459,1.213-1.622,4.632-1.562,6.838.114,4.164-.425,8.714.29,12.821a3.532,3.532,0,0,0,3.107,3.281,56.746,56.746,0,0,0,7.705.5c2.547.117,5.1,0,7.642-.125,2.339-.122,4.679-.278,7.021-.306,1.867-.021,3.653.4,5.285-.648,2.7-1.739,1.776-5.244,1.661-8.044C457.323,77.063,457.375,74.649,457.46,72.211ZM456.2,85.282c-.751,1.918-2.432,1.727-4.251,1.8-4.517.161-9.064.462-13.588.478-2.22.007-4.392-.247-6.6-.385-2-.133-4.739.531-5.541-1.876a19.174,19.174,0,0,1-.286-5.93c.025-2.126-.013-4.251-.074-6.377s-1.023-5.872,1.448-6.922c1.3-.553,4.974-.49,6.049.476a11.931,11.931,0,0,0,8.909,3.305,12.3,12.3,0,0,0,4.55-1.411c1.421-.767,2.494-2.446,4.011-2.923a8.472,8.472,0,0,1,2.735-.093q2.091-.434,2.79,2.185.053.765.058,1.533c.043,2.213-.146,4.423-.166,6.636-.02,2.118.133,4.226.193,6.341a8.039,8.039,0,0,1-.235,3.165Z" transform="translate(-419.963 -49.866)"/>
            <path class="b" d="M439.506,54.378a4.315,4.315,0,0,1,1.986-3.41c.626-.348.065-1.31-.562-.961a5.471,5.471,0,0,0-2.536,4.371C438.331,55.092,439.446,55.088,439.506,54.378Z" transform="translate(-422.853 -46.949)"/>
            <path class="b" d="M438.824,56.926a.557.557,0,1,0,.557.557A.557.557,0,0,0,438.824,56.926Z" transform="translate(-422.828 -48.366)"/>
        </g>
    </g>
</svg>