<svg xmlns="http://www.w3.org/2000/svg" width="59" height="58" viewBox="0 0 59 58"><defs><style>.a{fill:#fff;stroke:#fff;stroke-width:0.5px;}.b{fill:none;}</style></defs><g transform="translate(0.392 -0.116)"><path class="a" d="M263.627,50.12c-5.274-.779-10.973,1.952-12.807,6.814a11.109,11.109,0,0,0-5.048-5.475,12.411,12.411,0,0,0-11.364-.422c-3.077,1.265-5.492,4.59-6.775,7.482-1.617,3.655-.8,8.128.206,11.834a.567.567,0,0,0,1.095-.295c-1.675-6.182-1.4-13,4.372-17.138A11.691,11.691,0,0,1,243.7,51.637c3.159,1.408,6.3,4.165,6.543,7.765a.569.569,0,0,0,1.135,0c.6-6.595,8.885-10.117,14.695-7.429,6.174,2.855,8.777,10.943,6.746,17.071-1.282,3.867-6.369,2.905-9.717,2.923-1.9.011-3.8.031-5.7.015-.256,0-1.307,0-1.278.019a14.751,14.751,0,0,1-1.249-2.846.573.573,0,0,0-1.115.147c-.372,2.871-1.144,5.662-1.751,8.486-.59-4.748-.832-9.537-1.643-14.261-.093-.547-.974-.51-1.095,0l-2.342,9.893q-.522-2.3-1.047-4.594c-.117-.509-1.007-.547-1.095,0-.121.761-.316,2.83-.842,3.188-.36.246-1.715-.011-2.184-.013l-6.18-.039c-2.25-.015-5.786-.452-5.685,2.842.052,1.727,1.69,3.474,2.735,4.752a31,31,0,0,0,5.234,4.9A129.95,129.95,0,0,0,250.4,92.305a.587.587,0,0,0,.573,0A62.414,62.414,0,0,0,270.293,76.24c.452-.551-.347-1.34-.8-.782a58.912,58.912,0,0,1-12.355,11.824c-1.521,1.028-4.85,3.986-6.741,3.726a11,11,0,0,1-2.893-1.678c-1.2-.689-2.381-1.382-3.554-2.1a53.449,53.449,0,0,1-7.384-5.258c-1.364-1.2-8.172-7.557-3.687-8.91,1.694-.511,4.46.029,6.236.04l5.283.033a.579.579,0,0,0,.547-.407c.133-.421.258-.838.38-1.255l1.048,4.6a.575.575,0,0,0,1.095,0l2.227-9.4c.64,4.915.869,9.889,1.71,14.79.116.672,1.043.412,1.115-.147.43-3.341,1.4-6.576,2.029-9.879a2.524,2.524,0,0,0,1.952,1.647,52.588,52.588,0,0,0,8.176-.015c2.391-.016,5.561.5,7.555-1.071,1.727-1.364,2.075-3.781,2.258-5.8C275.093,59.345,271.245,51.241,263.627,50.12Z" transform="translate(-221.404 -41.895)"/><rect class="b" width="59" height="58" transform="translate(-0.392 0.116)"/></g></svg>