<svg xmlns="http://www.w3.org/2000/svg" width="32" height="32" viewBox="0 0 32 32">
<defs>
    <style>.a{fill:none;}.b{fill:#fff;stroke:#fff;stroke-width:0.15px;}</style>
</defs>
<g transform="translate(-24 -724)">
    <rect class="a" width="32" height="32" transform="translate(24 724)"/>
    <g transform="translate(29.001 701.203)">
        <g transform="translate(-0.001 27.798)">
            <path class="b" d="M21.765,35.66,11.337,27.91a.565.565,0,0,0-.675,0L.233,35.66a.586.586,0,0,0-.124.811.566.566,0,0,0,.8.125L11,29.1l10.09,7.5a.566.566,0,0,0,.8-.125.586.586,0,0,0-.125-.815Z" transform="translate(0.001 -27.797)"/></g>
        <g transform="translate(2.462 38.821)">
            <path class="b" d="M72.958,227.543a.575.575,0,0,0-.569.58h.569l-7.969-5.737c0-1.6-7.654,5.157-7.969,5.157a.575.575,0,0,0-.569.58v14.816a.575.575,0,0,0,.569.58h5.692a.573.573,0,0,0,.567-.535.444.444,0,0,0,0-.045v-5.622a1.708,1.708,0,1,1,3.415,0v5.622a.43.43,0,0,0,0,.045.573.573,0,0,0,.567.536h5.692a.575.575,0,0,0,.569-.58V228.123a.575.575,0,0,0-.564-.58Z" transform="translate(-56.452 -232.543)"/>
        </g>
    </g>
</g>
</svg>