<svg xmlns="http://www.w3.org/2000/svg" width="32" height="32" viewBox="0 0 32 32"><defs><style>.a{fill:none;}.b{opacity:0.75;}.c{fill:#fff;}</style></defs><g transform="translate(-246 -724)"><rect class="a" width="32" height="32" transform="translate(246 724)"/><g class="b" transform="translate(218.375 730)"><path class="c" d="M89.3,9.464a4.836,4.836,0,0,0,4.924-4.732,4.928,4.928,0,0,0-9.849,0A4.836,4.836,0,0,0,89.3,9.464Zm0-8.211a3.51,3.51,0,0,1,3.719,3.479A3.623,3.623,0,0,1,89.3,8.1a3.564,3.564,0,0,1-3.588-3.366A3.466,3.466,0,0,1,89.3,1.253Z" transform="translate(-45.674)"/><path class="c" d="M44.625,180c-4.963,0-9,3.5-9,7.807v.946h18v-.946C53.625,183.5,49.588,180,44.625,180Zm-7.6,7.441c-.056-3.532,4.216-6.376,7.6-6.376s7.63,2.868,7.714,6.376Z" transform="translate(-1 -168.754)"/></g></g></svg>