<svg xmlns="http://www.w3.org/2000/svg" width="490.434" height="302" viewBox="0 0 490.434 302"><defs><style>.a,.b,.c,.d,.g,.i{fill:none;}.a,.c,.d{stroke:#fff;}.b,.i{stroke:#fff200;}.c,.d,.g,.i{stroke-width:0.5px;}.d{stroke-dasharray:4;}.e,.h{fill:#fff200;}.e,.f{font-size:14px;font-family:Roboto-Regular, Roboto;}.f{fill:#fff;opacity:0.5;}.g{stroke:#9a9a9a;}.j{fill:#9a9a9a;}</style></defs><g transform="translate(-21 -501)"><path class="a" d="M2859.439-702.374H2373.47" transform="translate(-2348.006 1500.603)"/><path class="b" d="M2859.439-702.374H2373.47" transform="translate(-2348.006 1316.321)"/><path class="c" d="M2859.439-702.374H2373.47" transform="translate(-2348.006 1453.046)"/><path class="d" d="M2859.439-702.374H2373.47" transform="translate(-2348.006 1244.986)"/><path class="c" d="M2859.439-702.374H2373.47" transform="translate(-2348.006 1357.933)"/><path class="a" d="M2331-896v297.229" transform="translate(-2305.542 1397)"/><text class="e" transform="translate(37 604)"><tspan x="0" y="0">Now: 135 kg</tspan></text><text class="e" transform="translate(428.602 603.683)"><tspan x="0" y="0">25 Dec 2019</tspan></text><text class="f" transform="translate(429.726 532.348)"><tspan x="0" y="0">25 Feb 2020</tspan></text><text class="f" transform="translate(428.602 645.295)"><tspan x="0" y="0">12 Dec 2019</tspan></text><text class="f" transform="translate(428.602 740.408)"><tspan x="0" y="0">07 Dec 2019</tspan></text><text class="f" transform="translate(37 740)"><tspan x="0" y="0">Start: 110 kg</tspan></text><text class="f" transform="translate(37 532)"><tspan x="0" y="0">Tier 2: 150 kg</tspan></text><text class="f" transform="translate(37 645)"><tspan x="0" y="0">Tier 1: 125 kg</tspan></text><path class="g" d="M2324-646.8,2433.294-694.2l51.691-96.118,35.766-22.912,26.823-17.6" transform="translate(-2298.542 1445.03)"/><circle class="h" cx="4.5" cy="4.5" r="4.5" transform="translate(244 609)"/><path class="i" d="M2397.54-694.2l51.691-96.118L2485-813.226l26.823-17.6" transform="translate(-2262.791 1445.03)"/><ellipse class="h" cx="4" cy="4.5" rx="4" ry="4.5" transform="translate(182 651)"/><circle class="h" cx="4.5" cy="4.5" r="4.5" transform="translate(217 627)"/><circle class="h" cx="4.5" cy="4.5" r="4.5" transform="translate(129 746)"/><circle class="j" cx="4.5" cy="4.5" r="4.5" transform="translate(21 794)"/></g></svg>