<svg xmlns="http://www.w3.org/2000/svg" width="204" height="284" viewBox="0 0 204 284"><defs><style>.a,.b{fill:#fff;}.a,.c{stroke:#fff;}.a{stroke-width:0.15px;}.c,.e{fill:none;}.d{stroke:none;}</style></defs><g transform="translate(-945 -331)"><g transform="translate(1023.793 371.713)"><path class="a" d="M985.823-143.147a2.711,2.711,0,0,1-1.291-.273,2.028,2.028,0,0,1-.975-1.318c-.21-.738.583-2.145,1.639-3.908.187-.311.354-.587.471-.8.6-1.081,2.283-3.891,3.661-6.011,1.23-1.9-1.46-5.228-1.992-5.653a24.332,24.332,0,0,1-4.273-5.807c-.967-2.106-1.464-4.952-1.776-10.147-.251-4.291,1.109-7.421,4.048-9.3a10.965,10.965,0,0,1,6.244-1.445c4.258.311,5.772,1.631,6.877,2.6.154.137.3.262.447.38.4.321.994.914,1.68,1.6a18.332,18.332,0,0,0,3.9,3.324c1.321.508,1.5,1.291,1.762,2.374.081.339.172.721.307,1.158a25.483,25.483,0,0,1,.491,5.557c.052,1.683.111,3.591.273,5.556a17.2,17.2,0,0,0,3.791,8.552l.183.21-.669,1-.273-.116c-.057-.023-1.422-.594-2.7-1.291a65.393,65.393,0,0,0-6.241-2.265c-.493.609-2,2.459-2.732,3.291a21.136,21.136,0,0,0-1.5,2.443,27.489,27.489,0,0,1-3.469,5.221,11.284,11.284,0,0,0-1.242,1.485,7.377,7.377,0,0,1-4.214,3.132A8.186,8.186,0,0,1,985.823-143.147Zm5.121-43.964a10.039,10.039,0,0,0-5.2,1.351c-2.7,1.729-3.946,4.645-3.71,8.646.3,5.1.777,7.867,1.7,9.885a23.783,23.783,0,0,0,4.066,5.542c.72.575,3.671,4.273,2.147,6.621-1.366,2.109-3.039,4.9-3.635,5.971-.12.217-.291.5-.483.82-.512.85-1.709,2.84-1.568,3.33a1.294,1.294,0,0,0,.616.874,4.482,4.482,0,0,0,3.16-.238,6.607,6.607,0,0,0,3.85-2.869,11.843,11.843,0,0,1,1.321-1.575,27.212,27.212,0,0,0,3.341-5.054,20.383,20.383,0,0,1,1.589-2.565c.854-.967,2.851-3.437,2.869-3.462l.157-.194.238.075a70.242,70.242,0,0,1,6.606,2.4c.908.494,1.886.936,2.352,1.138l.027-.041a17.45,17.45,0,0,1-3.788-8.755c-.168-1.985-.228-3.9-.273-5.6a25.945,25.945,0,0,0-.459-5.362c-.145-.46-.238-.858-.321-1.208-.25-1.055-.354-1.492-1.314-1.861a17.572,17.572,0,0,1-4.15-3.488c-.671-.671-1.25-1.251-1.62-1.546-.153-.123-.307-.257-.47-.4-1.027-.9-2.436-2.124-6.451-2.417h0c-.082-.01-.292-.019-.6-.019Z" transform="translate(-970.008 187.839)"/><path class="b" d="M1023.355-163.12l-2.07-3.212,1.933-1.055,1.934,3.367Zm-1.029-2.947,1.288,2,.519-.258-1.193-2.076Z" transform="translate(-990.437 177.349)"/><path class="a" d="M988.524,46.485c-1.433,0-2.69,0-3.336-.019-1.913-.044-3.18-.479-3.59-2.514a3.807,3.807,0,0,1,2.246-3.833,5.244,5.244,0,0,0,1.056-.81c-.858.029-2.193.046-3.534-.044a5.9,5.9,0,0,1-2.895-.994A4.234,4.234,0,0,0,977,37.627a2.974,2.974,0,0,0-2.281.933,4.434,4.434,0,0,1-.728.512,13.779,13.779,0,0,1-4.227.037,50.889,50.889,0,0,1-8.593-.622,3.593,3.593,0,0,1-2.575-2.164,2.3,2.3,0,0,1,.466-2.2c1.238-1.514,2.5-1.7,7.116-2.179a13.387,13.387,0,0,0,8.842-5.635,6.318,6.318,0,0,1,1.93-2.225l.313-.2.459.719c1.844-4.145,1.35-11.594.646-14.661a134.3,134.3,0,0,1-1.758-14.15,1.056,1.056,0,0,1,.435-.876,1.034,1.034,0,0,1,.3-.137,20.931,20.931,0,0,1-2.332-3.6,132.967,132.967,0,0,1-5.826-16.371,83.131,83.131,0,0,1-2.025-27.151,50.917,50.917,0,0,0-.012-11.229c-2.419-.963-2.154-4.194-1.993-6.147l.036-.458a7.606,7.606,0,0,0-.929-4c-.18-.454-.388-.977-.623-1.591-.529-1.378-1.29-3.049-2.1-4.815a61.532,61.532,0,0,1-2.725-6.565,10.119,10.119,0,0,1,.41-6.594l.081-.239c.355-1.057.769-3.037,1.294-5.543.177-.847.369-1.761.576-2.732a37.733,37.733,0,0,0,.709-4.974c.125-1.343.252-2.732.6-4.673a8.392,8.392,0,0,1,6.056-6.676c2.146-.769,4.669-1.934,4.694-1.945l.75-.347-.243.788c-.13.417-1.244,2.459-2.475,4.7-.325.59-.585,1.066-.7,1.283l-.119.219c-.514.932-1.582,2.869-.193,4.126,1.477,1.335,6.694-.225,9.319-1.949a20.682,20.682,0,0,0,5.483-6.011c.579-.988,4.3-6.752,5.078-7.1.174-.081,1.473-.537,1.8-.127l.18.227-.184.261c-4.356,5.5-4,8.06-3.048,11.774.885,3.464,8.27,7.961,9.33,8.333,1.318.459,2.44,1.96,2.221,2.975a39.152,39.152,0,0,1-2.026,4.426l-.137.265-.289-.079a113.49,113.49,0,0,0-15.051-2.542c-9.709-1.123-13.963,3.041-14.005,3.083L968.7-96l-.257-.187c-5.6-4.083-3.962-7.565-3.177-9.239a29.25,29.25,0,0,0,1.288-4.041,30.915,30.915,0,0,0-3.331,7.228c-.249,2.025,1.776,3.8,3.511,4.929,1.545,1.005.948,3.279.467,5.094-.068.258-.137.511-.194.753-.425,1.746.287,4.412.807,6.36l.066.249c.391,1.466,1.175,4.789,1.548,6.381a12.194,12.194,0,0,0,.516-4.32c0-.372,0-.727.012-1.05a64.669,64.669,0,0,0-1.191-8.481c-.077-.426-.146-.81-.2-1.134a2.287,2.287,0,0,1,.4-1.913c.956-1.221,3.407-1.826,9.034-2.234,7.206-.519,19.376,2.548,19.89,2.679l.37.094-.108.363c-.037.124-3.673,12.431-4.131,15.213-.176,1.07-.148,1.7.083,1.887.355.273,1.553-.152,2.8-.66,2.619-1.072,7.6-7.923,10.147-12.2a16.546,16.546,0,0,0,2.636-6.948,27.84,27.84,0,0,0-4.6-4.742,37.247,37.247,0,0,1-3.427-3.213l-.593.859-.3-.2c-.273-.183-6.718-4.527-8.828-7.091s-1.453-5.783-1.106-7.513l.053-.273a17.819,17.819,0,0,1,2.2-4.539l.187-.285.3.167a21.131,21.131,0,0,0,4.314,1.817c.41.085.844.15,1.264.213a7.477,7.477,0,0,1,3.736,1.255c1.082.88,4.781,4.731,7,7.031.44.458.812.844,1.079,1.12.846.873,3.161,3.519,5.4,6.079,1.981,2.264,3.851,4.4,4.636,5.238,1.934,2.049,2.128,3.795.769,6.895-1.4,3.2-7.923,11.05-10.407,13.4-2.422,2.294-6.785,5.892-8.434,7.1-1.277.941-3.322,2.759-4,3.369a31.167,31.167,0,0,1,3.27,9.446,20.317,20.317,0,0,1-1.238,9.4,19.024,19.024,0,0,0-.932,7.5c.012.29.024.563.031.82,0,.137.32,14.183.137,19.991a32.235,32.235,0,0,0,1.7,10.334c.146.48.253.826.3,1.061a9.757,9.757,0,0,0,.667,1.616,7,7,0,0,1,1.041,3.58,1.944,1.944,0,0,0,.54,1.895c.046.055.09.105.136.156.388.484.775,2.161,1.493,9.023a51.168,51.168,0,0,1-1.093,14.764l-.07.355c-.391,1.985-1.264,9.217-1.306,11.164a1.672,1.672,0,0,0,1.1,1.736c.309.165.627.336.683.683.082.488.617,6.011.617,6.936,0,.164.012.363.025.583a4.706,4.706,0,0,1-.594,3.266c-.985,1.143-3.068.82-4.186.646a1.706,1.706,0,0,0-2,.885c-.567.847-2.691,1.12-3.631,1.12h-1.449C992.67,46.475,990.44,46.485,988.524,46.485Zm-1.865-8.011-.578.665a8.376,8.376,0,0,1-1.9,1.627c-.091.048-2.237,1.194-1.867,3.041.288,1.432.956,1.882,2.884,1.925,1.5.033,6.348.015,8.95,0H995.6a5.081,5.081,0,0,0,3.018-.8,2.422,2.422,0,0,1,2.732-1.2c1.451.225,2.881.335,3.512-.4a4.235,4.235,0,0,0,.418-2.747c-.012-.236-.025-.449-.025-.626,0-.82-.519-6.284-.608-6.814a3.217,3.217,0,0,1-.309-.158,2.382,2.382,0,0,1-1.49-2.389c.045-2.023.914-9.231,1.32-11.288l.071-.358a50.511,50.511,0,0,0,1.075-14.546c-.362-3.447-.892-8.091-1.336-8.642-.035-.045-.075-.092-.117-.137a2.648,2.648,0,0,1-.7-2.508,6.9,6.9,0,0,0-.983-3.13,9.893,9.893,0,0,1-.72-1.769c-.046-.206-.154-.56-.291-1.007a32.947,32.947,0,0,1-1.729-10.571c.187-5.791-.128-19.808-.137-19.945,0-.255-.018-.523-.03-.807a19.664,19.664,0,0,1,.967-7.757,19.432,19.432,0,0,0,1.208-9.069,30.449,30.449,0,0,0-3.327-9.415l-.167-.26.23-.208c.111-.1,2.714-2.459,4.287-3.62,1.639-1.2,5.962-4.773,8.364-7.049,2.451-2.322,8.869-10.041,10.246-13.166,1.381-3.149.9-4.477-.633-6.1-.794-.844-2.669-2.988-4.654-5.258-2.232-2.553-4.541-5.191-5.374-6.052-.273-.273-.641-.664-1.082-1.122-2.057-2.139-5.888-6.119-6.936-6.967a6.856,6.856,0,0,0-3.381-1.093c-.429-.064-.872-.137-1.3-.22a19.617,19.617,0,0,1-4.217-1.729,15.761,15.761,0,0,0-1.913,3.993l-.053.273c-.324,1.616-.925,4.627.956,6.911,1.789,2.176,7.05,5.841,8.369,6.743l.683-1,.313.324a42.85,42.85,0,0,0,3.608,3.426c.674.43,4.781,4.295,4.933,5.237.13.772-.538,3.748-2.732,7.44-1.669,2.813-7.18,11.15-10.5,12.509-1.851.758-2.906,1.052-3.533.556-.488-.385-.59-1.132-.352-2.579.425-2.6,3.415-12.821,4.042-14.935-2.125-.518-12.887-3.031-19.283-2.567-5.251.378-7.717.945-8.507,1.953a1.581,1.581,0,0,0-.257,1.332c.057.322.126.7.2,1.13a63.364,63.364,0,0,1,1.2,8.632c-.011.318-.011.667-.012,1.031-.008,1.876-.019,4.209-1.123,5.516l-.475.563-.165-.716c-.012-.052-1.229-5.3-1.747-7.24l-.067-.247c-.547-2.023-1.28-4.794-.81-6.72.06-.246.128-.5.2-.766.443-1.678.944-3.579-.157-4.295-2.744-1.784-4.072-3.731-3.839-5.63.273-2.268,3.942-8.435,4.673-9.649l.162-.273.6.232-.066.32a48.212,48.212,0,0,1-1.93,6.578c-.744,1.586-2.12,4.515,2.7,8.16,1.042-.9,5.464-4.109,14.378-3.079a121.288,121.288,0,0,1,14.87,2.488,35.719,35.719,0,0,0,1.825-4c.127-.591-.728-1.776-1.745-2.13-1.3-.452-8.827-5.031-9.8-8.841s-1.276-6.546,2.707-11.795a2.461,2.461,0,0,0-.432.145,57.4,57.4,0,0,0-4.75,6.814,21.292,21.292,0,0,1-5.714,6.255c-2.509,1.65-8.3,3.616-10.22,1.88-1.818-1.639-.515-4.008.041-5.019l.113-.209c.116-.219.378-.7.706-1.292.567-1.031,1.479-2.69,2.008-3.71-.943.41-2.466,1.067-3.839,1.559a7.622,7.622,0,0,0-5.58,6.116c-.344,1.913-.47,3.279-.593,4.612a38.4,38.4,0,0,1-.722,5.054c-.208.966-.4,1.877-.575,2.724-.53,2.53-.948,4.529-1.316,5.625l-.082.242a9.484,9.484,0,0,0-.4,6.147,61.3,61.3,0,0,0,2.691,6.472c.81,1.776,1.575,3.458,2.112,4.856.235.612.441,1.131.62,1.583a8.332,8.332,0,0,1,.978,4.317l-.037.464c-.157,1.912-.395,4.8,1.706,5.464l.216.068.035.223a50.2,50.2,0,0,1,.046,11.629c-.723,7.046-.273,18.861,2,26.879a134.418,134.418,0,0,0,5.787,16.256,16.389,16.389,0,0,0,2.787,4l1.7,1.292-2.041-.653a.956.956,0,0,0-.669.014c-.027.019-.109.076-.119.3a133.724,133.724,0,0,0,1.742,13.957c.76,3.3,1.268,11.584-1,15.745l-.3.546-.732-1.145a5.874,5.874,0,0,0-1.384,1.723,14.014,14.014,0,0,1-9.426,6.024c-4.69.484-5.6.669-6.62,1.912a1.575,1.575,0,0,0-.336,1.522,2.88,2.88,0,0,0,2.076,1.68,51.75,51.75,0,0,0,8.429.6,14.186,14.186,0,0,0,3.861.038,4.143,4.143,0,0,0,.6-.429,3.581,3.581,0,0,1,2.869-1.083,4.945,4.945,0,0,1,1.725.736,5.191,5.191,0,0,0,2.566.892,37.126,37.126,0,0,0,4.371,0Z" transform="translate(-958.449 155.688)"/><path class="b" d="M983.7-17.774c-2.061,0-6.321-.762-7.274-2.587a1.943,1.943,0,0,1,.41-2.25l.186-.227.261.137c.018.008,1.725.862,2.334,1.083a17.235,17.235,0,0,0,8.425-.014c2.587-.568,3.7-.061,4.169.464a1.337,1.337,0,0,1,.3,1.326,1.036,1.036,0,0,1-.743.72l-.526.109a70.993,70.993,0,0,1-7.064,1.229C984.041-17.779,983.881-17.774,983.7-17.774Zm-6.467-4.143a1.136,1.136,0,0,0-.158,1.217c.82,1.578,5.418,2.307,7.046,2.186a70.6,70.6,0,0,0,6.967-1.214l.533-.111a.334.334,0,0,0,.192-.231.6.6,0,0,0-.145-.608c-.227-.251-1.021-.777-3.47-.24a17.3,17.3,0,0,1-8.83-.014c-.495-.186-1.612-.729-2.133-.985Z" transform="translate(-967.581 103.38)"/><path class="a" d="M1019.5,148.642l-.273-.168c-.168-.1-1.041-.775-1.733-4.149-.624-3.041-2.613-3.177-2.7-3.182l-.3-.015-.045-.3c-.482-3.38.18-5.957,1.093-9.526.591-2.3,1.328-5.165,1.944-9,1.3-8.112-.837-13.387-1.5-14.77a2.057,2.057,0,0,1-1.258.16l-.878-.19.762-.477a3.825,3.825,0,0,0,.985-3.632,7.583,7.583,0,0,1-.371-3.492l.136-1,.53.863a29.235,29.235,0,0,1,3.167,7.318c.65,2.833,1.291,3.511,1.716,3.962.077.081.146.156.209.231a3.877,3.877,0,0,0,2.1.137l1.216-.158-.932.8a4.064,4.064,0,0,1-2.1.591,11.08,11.08,0,0,1,.32,1.973l.007.105a127.964,127.964,0,0,0,1.463,13.745,50.658,50.658,0,0,1,1.132,10.709,37.21,37.21,0,0,1-1.055,4.317l-.063.209-.215.042a3,3,0,0,0-1.8,2.049,8.253,8.253,0,0,1-1.366,2.589Zm-4.371-8.186c.721.149,2.475.807,3.072,3.723a9.7,9.7,0,0,0,1.175,3.4,6.306,6.306,0,0,0,.972-1.912,3.825,3.825,0,0,1,2.152-2.576,34.293,34.293,0,0,0,.973-4,51.007,51.007,0,0,0-1.126-10.48,128.729,128.729,0,0,1-1.475-13.836v-.1a10.142,10.142,0,0,0-.416-2.254l-.16-.481h.356a.862.862,0,0,1-.217-.182c-.053-.064-.113-.128-.179-.2-.48-.507-1.2-1.272-1.9-4.3a26.013,26.013,0,0,0-2.448-5.993,5.649,5.649,0,0,0,.368,1.863,4.5,4.5,0,0,1-.566,3.736.819.819,0,0,0,.15-.119l.335-.342.24.41c.137.235,3.339,5.874,1.776,15.614-.621,3.865-1.366,6.746-1.957,9.061-.908,3.515-1.51,5.87-1.127,8.97Z" transform="translate(-986.631 41.165)"/></g><g class="c" transform="translate(945 331)"><rect class="d" width="204" height="284" rx="4"/><rect class="e" x="0.5" y="0.5" width="203" height="283" rx="3.5"/></g></g></svg>