<svg xmlns="http://www.w3.org/2000/svg" width="203" height="284" viewBox="0 0 203 284">
    <defs>
    <style>.a{fill:yellow;}.b,.d{fill:none;}.b{stroke:yellow;}.c{stroke:none;}</style>
</defs>
    <g transform="translate(-608 -331)">
    <g transform="translate(671.235 371.713)">
    <path class="a" d="M131.212,54.084a5.779,5.779,0,0,1-.768-.055c-1.964-.258-4.1-2.136-5.124-3.039-.168-.149-.3-.262-.376-.324-.538-.41-4.235-3.679-4.4-3.825l-.273-.235.143-.325a7.482,7.482,0,0,0-1.131-8.248c-1.008-1.055-1.765-2.759-.583-4.088a3.519,3.519,0,0,0,.877-1.874,6.4,6.4,0,0,1,.182-.72,5.33,5.33,0,0,0,.056-.977,10.316,10.316,0,0,1,1.759-6.4,10,10,0,0,1,7.753-3.568h0c4.644.137,7.531,1.544,9.069,4.407,1.307,2.433.693,6.73.43,8.565-.045.322-.081.556-.087.675a5.246,5.246,0,0,0,.137,1.072,6.194,6.194,0,0,1,.152,1.862,9.626,9.626,0,0,1-.8,3.012c-.317.514-2.134,3.982-3.158,6.2a31.188,31.188,0,0,0-1.718,6.245C133.241,53.183,132.88,54.084,131.212,54.084Zm-9.75-7.732c1.378,1.216,3.7,3.25,4.082,3.552.09.07.236.2.426.366.878.773,2.937,2.584,4.609,2.8s1.748-.321,1.819-.755a31.691,31.691,0,0,1,1.8-6.521c1.04-2.242,2.889-5.771,3.213-6.3a8.629,8.629,0,0,0,.667-2.623,5.378,5.378,0,0,0-.137-1.564,5.736,5.736,0,0,1-.146-1.3c0-.137.044-.4.094-.762.249-1.74.832-5.815-.324-7.966-1.356-2.527-3.975-3.765-8.242-3.894h0a8.9,8.9,0,0,0-6.947,3.183A9.468,9.468,0,0,0,120.81,30.4a4.771,4.771,0,0,1-.107,1.273,5.664,5.664,0,0,0-.153.613,4.478,4.478,0,0,1-1.1,2.322c-.956,1.076.3,2.5.56,2.772a8.439,8.439,0,0,1,1.452,8.972Z" transform="translate(-81.119 -20.403)"/><path class="a" d="M135.452,148.538a30.988,30.988,0,0,1-8.641-1.085,14.558,14.558,0,0,0-4.882-.428,18.381,18.381,0,0,1-2.74-.083l-.361-.04-.354-1.978-.915,2.686-.317.026c-.631.031-9.319-1.147-11.279-1.516a14.844,14.844,0,0,0-4.8-.164c-.828.165-2.972.41-3.064.41l-.611.067.075-.609s.41-3.347.82-7.018c.422-3.8,1.333-10.278,2.128-14.553.811-4.363,2.7-11.125,2.717-11.193l.362-1.007.915.331-.352.973c-.008.033-1.881,6.753-2.684,11.073-.791,4.255-1.7,10.705-2.119,14.479-.3,2.732-.608,5.284-.744,6.42.709-.085,1.847-.227,2.37-.332a15.708,15.708,0,0,1,5.166.163c2.033.384,9.073,1.335,10.716,1.483l1.287-3.772,1.042.522.469,2.612a15.774,15.774,0,0,0,2.207.045,15.628,15.628,0,0,1,5.244.471,30.4,30.4,0,0,0,8.348,1.038c3.688,0,5.054-.62,5.274-.861a9.133,9.133,0,0,0,.243-2.7c0-.444-.048-2.552-.1-4.852-.061-2.732-.137-5.83-.137-6.609a86.251,86.251,0,0,0-1.071-14.083,4.015,4.015,0,0,0-.828-1.753.575.575,0,0,1-.13-.531l.072-.239.243-.085.157.462.419-.212a5.014,5.014,0,0,1,1.024,2.192,87.282,87.282,0,0,1,1.085,14.247c0,.768.07,3.859.137,6.587.052,2.311.1,4.429.1,4.875,0,1.815-.079,2.886-.492,3.347C140.783,148.1,138.541,148.538,135.452,148.538Z" transform="translate(-80.544 -22.975)"/>
        <path class="a" d="M136.03,106.71l-.281-2.385c-.067-.943-.564-9.45-.339-10.937.214-1.414,1.292-6.413,1.516-7.386a3.317,3.317,0,0,1,2.666-2.6,5.815,5.815,0,0,0,3.653-3.994,53.168,53.168,0,0,0-.566-7.6c-.059-.5-.107-.891-.128-1.126-.012-.123-.023-.273-.034-.437a10.432,10.432,0,0,0-3.77-7.744c-2.833-2.545-4.781-4.235-5.661-5a2.459,2.459,0,0,1-.734.869,3.034,3.034,0,0,1-2.388.426c-2.7-.466-5.587-3.116-6.535-3.987-.2-.186-.444-.437-.717-.724-1.024-1.074-2.552-2.658-4-2.646a14.178,14.178,0,0,0-2.235.566c-.494.15-.928.273-1.156.324a37.019,37.019,0,0,0-6.077,1.688,20.2,20.2,0,0,0-6.316,4.2c-2.154,1.893-7.491,6.465-9.507,8.2A9.562,9.562,0,0,1,96.97,68c1.873,1.406,5.054,4.4,5.949,6.355a49.522,49.522,0,0,1,1.72,8.57c.051.359.089.631.113.781.068.422.482,2.295.922,4.276.637,2.878,1.295,5.855,1.366,6.487.137,1.213.865,5.945,1.08,6.59l.081.1-.06,1.19-.971-.049.048-.933c-.41-1.328-1.135-6.726-1.142-6.785-.067-.582-.78-3.8-1.352-6.387-.46-2.083-.859-3.884-.932-4.333-.025-.154-.064-.432-.116-.8a50.849,50.849,0,0,0-1.639-8.305,22.461,22.461,0,0,0-5.647-5.979A9.015,9.015,0,0,0,92.271,67.2l-1.158-.1L92,66.347c.077-.066,7.624-6.519,10.285-8.857a21.263,21.263,0,0,1,6.59-4.371,37.854,37.854,0,0,1,6.255-1.742c.212-.042.609-.164,1.067-.3a12.829,12.829,0,0,1,2.485-.605c1.854-.076,3.593,1.748,4.737,2.946.255.273.481.5.671.683.9.82,3.621,3.328,6.043,3.744a2.136,2.136,0,0,0,1.639-.247,1.66,1.66,0,0,0,.613-.99l.137-.861.664.56c.022.019,2.255,1.925,6.215,5.48a11.474,11.474,0,0,1,4.09,8.4c.01.154.019.29.03.41.023.229.07.616.128,1.106a52.56,52.56,0,0,1,.566,7.812,6.752,6.752,0,0,1-4.351,4.827c-1.392.4-1.783,1-1.989,1.888-.242,1.045-1.3,5.984-1.5,7.315-.187,1.238.219,8.879.346,10.7l.273,2.362Z" transform="translate(-80.369 -21.234)"/><path class="a" d="M142.665,114.673l-.683-.7c1.288-1.25,1.686-1.912,2.231-4.568.389-1.891,1.519-6.479,2.265-9.517.361-1.462.639-2.6.717-2.946a6.025,6.025,0,0,1,.41-1.053,8.2,8.2,0,0,0,.623-6.346c-.837-2.6-1.5-4.321-1.84-5.176a17.812,17.812,0,0,1-1.414,1.165c-.421.3-1.194.773-1.859,1.183-.4.243-.743.458-.929.581-.69.459-1.352.971-1.147,1.712.109.4.189.765.262,1.105a5.154,5.154,0,0,0,.516,1.6c.575.943.691,1.806-.273,3.905a17.074,17.074,0,0,0-1.261,6.275c.012.488.061,1.123.109,1.766a9,9,0,0,1,.011,3.024l-.885-.4a17.21,17.21,0,0,0-.094-2.549c-.049-.658-.1-1.31-.112-1.81a17.96,17.96,0,0,1,1.351-6.71c.928-2.013.637-2.489.329-2.992a5.923,5.923,0,0,1-.635-1.9c-.072-.325-.146-.675-.251-1.055-.41-1.482.973-2.4,1.493-2.744.246-.164.6-.384,1.012-.635.622-.382,1.395-.856,1.807-1.149a23.947,23.947,0,0,0,1.826-1.55l.5-.466.273.626c.036.079.878,2,2.136,5.9a9.152,9.152,0,0,1-.66,7.042,5.773,5.773,0,0,0-.343.867c-.079.358-.359,1.5-.723,2.967-.744,3.03-1.873,7.609-2.258,9.48C144.581,112.47,144.077,113.3,142.665,114.673Z" transform="translate(-81.702 -22.15)"/><path class="a" d="M102.926,111.691a26.228,26.228,0,0,1-4.508-3.169l-.152-.137c-.978-.869-2.315-2.059-2.632-2.377-.063-.063-6.322-6.464-8.812-12.126a63.562,63.562,0,0,0-5.993-10.668l-.171-.254c-1.4-2.078-.083-4.08,1.445-6.4l.51-.779a23.134,23.134,0,0,1,5.263-5.935,4.769,4.769,0,0,1,2.278-.376c3.709.979,8.654,6.472,9.192,7.278a1.064,1.064,0,0,1,.152.873c-.2.791-1.229,1.429-2.309,2l-.087.045a7.746,7.746,0,0,0-2.882,2.156c-.357.6.2,2.434.981,4.979.32,1.05.683,2.255,1.071,3.624.023.075,2.722,8.69,7.072,12.294l-.619.75c-4.576-3.787-7.271-12.4-7.385-12.767-.385-1.373-.75-2.571-1.068-3.616-.943-3.091-1.463-4.795-.885-5.76A8.79,8.79,0,0,1,96.7,78.785c1.162-.616,1.776-1.079,1.856-1.4-.623-1-5.416-6.117-8.57-6.958h-.164a3.611,3.611,0,0,0-1.511.292,22.769,22.769,0,0,0-4.881,5.6l-.515.785c-1.591,2.415-2.444,3.852-1.451,5.327l.171.251a64.613,64.613,0,0,1,6.077,10.823c2.421,5.5,8.55,11.769,8.606,11.83.335.333,2.033,1.841,2.6,2.337l.152.137a26.078,26.078,0,0,0,4.14,2.966Z" transform="translate(-80.063 -21.78)"/><path class="a" d="M88.784,212.84l-.108-1.068a31.556,31.556,0,0,1-.146-3.922,29.985,29.985,0,0,0-.137-3.344c-.089-1.209-.18-2.459-.153-3.5.04-1.5-.273-7.069-.575-12.446-.107-1.893-.21-3.75-.3-5.374a26.6,26.6,0,0,1,2.665-12.6c.146-.292.609-1.176,1.213-2.322,1.432-2.732,3.6-6.853,4.278-8.333a32.649,32.649,0,0,0,1.539-7.01c.045-.332.083-.592.109-.751.03-.18.044-.346.056-.5a2.049,2.049,0,0,1,1.479-2.041,12.874,12.874,0,0,1,5.088-.479,31.784,31.784,0,0,1,4.691.788l.7.15c1.759.373,5.754.956,5.793.956l.572.083-.179.546c-.01.029-.229.7-.668,1.739-.119.281-.454.846-1.085,1.9-1.514,2.534-4.332,7.249-4.486,9.368-.216,2.961-1.436,4.133-3.125,5.756l-.4.382c-1.792,1.739-2.8,3.19-4.939,9.765a88.924,88.924,0,0,0-3.688,15.925,66.3,66.3,0,0,0-.62,7.4c-.011.31-.019.555-.029.727a22.424,22.424,0,0,0,.979,4.162l.194.628h-.658a16,16,0,0,0-4.336.63,8.616,8.616,0,0,0-3.005,1.986Zm13.441-62.762a8.415,8.415,0,0,0-3.113.438c-.828.363-.848.6-.9,1.229-.015.179-.031.37-.067.578-.026.154-.061.41-.107.728a32.611,32.611,0,0,1-1.62,7.282c-.693,1.5-2.869,5.637-4.3,8.375-.6,1.142-1.059,2.019-1.2,2.31a25.565,25.565,0,0,0-2.563,12.116c.086,1.623.19,3.479.3,5.37.3,5.4.616,10.979.575,12.526-.026.985.063,2.212.15,3.4a30.658,30.658,0,0,1,.137,3.466,25.2,25.2,0,0,0,.063,2.791,8.994,8.994,0,0,1,2.639-1.542,15.312,15.312,0,0,1,4.012-.667,18.441,18.441,0,0,1-.837-3.894c.01-.167.018-.41.029-.7a67.122,67.122,0,0,1,.63-7.5,89.774,89.774,0,0,1,3.721-16.089c2.207-6.785,3.278-8.307,5.191-10.162l.4-.387c1.59-1.527,2.64-2.538,2.829-5.125.171-2.35,2.956-7.012,4.62-9.8.5-.832.927-1.55,1.024-1.776.19-.454.339-.835.444-1.119-1.188-.178-3.871-.589-5.27-.885l-.7-.15a32.11,32.11,0,0,0-4.444-.764C103.379,150.1,102.814,150.078,102.225,150.078Z" transform="translate(-80.261 -24.036)"/><path class="a" d="M134.857,205.571a4.546,4.546,0,0,1-.963-.1c-1.957-.426-3.367-1-3.675-4.571-.34-3.972-.626-6.61-.8-7.428-.059-.273-.242-1.031-.49-2.063-.683-2.836-1.82-7.584-2.25-9.9a27.7,27.7,0,0,1-.12-7.069c.042-.566.082-1.082.1-1.533a30.51,30.51,0,0,0-.484-5.78c-.243-1.432-1.31-6.734-1.844-8.894s-2.1-7.266-2.117-7.316l-.18-.587.612-.041a20.638,20.638,0,0,1,3.5.01c.231.051.683.167,1.247.318,1.4.37,3.52.93,5.054,1.16a36.047,36.047,0,0,0,6.039.182c.527-.061,1.462-.184,1.462-.184l.546-.071v.546c0,.488-.586,8.229-.738,9.746-.16,1.605.051,10.618.247,13.933.2,3.4.2,10.047.2,10.108-.238,4.262-.683,12.391-.683,12.855a12.082,12.082,0,0,1-.2,1.651c-.086.546-.19,1.2-.3,2a3.134,3.134,0,0,1-1.386,2.16,4.918,4.918,0,0,1-2.78.867Zm-11.534-54.347c.433,1.421,1.512,5,1.949,6.775.557,2.258,1.615,7.529,1.858,8.964a31.582,31.582,0,0,1,.5,5.983c-.019.46-.059.988-.1,1.567a26.561,26.561,0,0,0,.107,6.819c.426,2.292,1.561,7.024,2.242,9.852.25,1.041.434,1.811.495,2.084.238,1.093.578,4.713.82,7.55.258,2.99,1.176,3.328,2.914,3.7a3.945,3.945,0,0,0,2.979-.6,2.206,2.206,0,0,0,.982-1.489c.107-.811.212-1.481.3-2.029a12.15,12.15,0,0,0,.19-1.5c0-.605.653-12.381.683-12.881,0-.04,0-6.654-.2-10.03-.2-3.422-.41-12.406-.243-14.085.137-1.388.578-7.229.7-9.092-.294.038-.642.081-.9.111a36.5,36.5,0,0,1-6.293-.187c-1.586-.238-3.735-.806-5.157-1.182-.546-.146-.978-.26-1.2-.307a15.359,15.359,0,0,0-2.616-.019Z" transform="translate(-81.224 -24.057)"/><path class="a" d="M144.193,220.035a4.013,4.013,0,0,1-2.406-.82,4.407,4.407,0,0,0-1.147-.589c-.72-.214-1.415.452-1.878.895a1.576,1.576,0,0,1-.639.46,24.733,24.733,0,0,1-2.993.015c-.056,0-5.312-.2-6.191-.2a1.69,1.69,0,0,1-1.978-1.453,15.9,15.9,0,0,1,.41-5.848,27.472,27.472,0,0,1,1.386-3.894,1.639,1.639,0,0,1,1.284-1.229,1.455,1.455,0,0,1,1.511.546,6.538,6.538,0,0,0,1.922,1.281,4.22,4.22,0,0,0,4.811-.884c.837-1.037,1.847-2.49,1.856-2.5l.235-.336.372.173a5.108,5.108,0,0,1,1.481,1.611c.437.593.981,1.333,1.66,2.1a14.283,14.283,0,0,0,7.745,3.389,9.529,9.529,0,0,1,4.393,1.209l.292.149a2.251,2.251,0,0,1,1.3,3.185c-.645,1.639-3.382,2.354-3.9,2.427-.355.051-2.49.116-5.706.21-1.52.045-2.931.086-3.61.116A1.857,1.857,0,0,0,144.193,220.035Zm-3.844-2.425a1.934,1.934,0,0,1,.572.086,5.351,5.351,0,0,1,1.395.7,3.038,3.038,0,0,0,2.037.66c.683-.029,2.1-.07,3.624-.115,2.224-.066,5.27-.156,5.6-.2.7-.1,2.732-.811,3.128-1.821.38-.966.172-1.459-.826-1.959l-.3-.152a8.591,8.591,0,0,0-4-1.105,14.985,14.985,0,0,1-8.424-3.716c-.708-.8-1.266-1.559-1.714-2.169-.3-.4-.579-.79-.806-1.041-.369.518-1.015,1.411-1.6,2.132a5.174,5.174,0,0,1-5.969,1.157,7.512,7.512,0,0,1-2.177-1.451c-.41-.373-.433-.365-.6-.318-.522.137-.578.443-.583.477l-.04.152a27.289,27.289,0,0,0-1.366,3.8,15.21,15.21,0,0,0-.41,5.341c.21.725.311.753,1.044.753.9,0,6.01.2,6.225.2,1.142.037,2.512.053,2.732.012-.012-.014.079-.109.2-.219a3.52,3.52,0,0,1,2.259-1.208Z" transform="translate(-81.349 -25.589)"/><path class="a" d="M98.894,227.955h-.473c-1.328-.049-8.121-.4-11.552-2.466-3.091-1.86-2.877-3.575-2.721-4.829l.037-.321c.137-1.3,1.139-5.986,1.33-6.557.137-.4.555-1.193,1.2-1.344a.948.948,0,0,1,.912.284l.137.137v3.2a1.216,1.216,0,0,0,.057.566,4.509,4.509,0,0,0,1.4-.956l.253-.221a9.179,9.179,0,0,1,5.726-2.878h.1c2.81,0,5.18,1.229,5.564,2.345a3.825,3.825,0,0,1-.447,2.5c1.268.757,5.254,3.142,6.48,3.911l.137.082c1.71,1.076,3.326,2.093,3.02,3.209a3.079,3.079,0,0,1-2.957,2.528,72.06,72.06,0,0,1-8.2.8Zm-12.1-14.48a1.965,1.965,0,0,0-.359.616c-.137.426-1.145,5.021-1.284,6.348l-.04.341c-.15,1.2-.292,2.34,2.258,3.874,2.5,1.5,7.535,2.194,11.086,2.322a63.27,63.27,0,0,0,8.492-.785c1.727-.253,1.957-1.093,2.161-1.824.116-.419-1.787-1.617-2.6-2.128l-.137-.082c-1.449-.912-6.8-4.1-6.849-4.131l-.41-.242.229-.41a3.788,3.788,0,0,0,.591-2.136c-.2-.587-2.161-1.688-4.644-1.688H95.21a8.286,8.286,0,0,0-5.082,2.625c-.079.072-.137.123-.171.15l-.112.093c-.876.738-1.576,1.229-2.153,1.157-.94-.093-.91-1.18-.9-1.537Z" transform="translate(-80.171 -25.782)"/><path class="a" d="M117.551,113.508a6.967,6.967,0,0,1-1.03-.122l-.246-.04a16.1,16.1,0,0,1-2.127-.646c-.507-.176-.984-.342-1.285-.421a23.432,23.432,0,0,0-5.692-.645,17.339,17.339,0,0,1-5.577-.852,8.548,8.548,0,0,1-2.64-2.079c-.16-.161-.285-.288-.359-.355l-.152-.137c-.622-.546-2.273-2.018-2.623-2.366-.061-.061-6.284-6.43-8.761-12.052a63.913,63.913,0,0,0-6.01-10.705l-.171-.254c-1.313-1.944-.034-3.884,1.445-6.129.168-.254.34-.515.511-.781A23.155,23.155,0,0,1,88,70.073a4.508,4.508,0,0,1,2.146-.351c3.429.908,8.359,6.192,9.016,7.171a.831.831,0,0,1,.119.683c-.178.7-1.156,1.3-2.186,1.844l-.061.033a8.286,8.286,0,0,0-3.005,2.258h0c-.41.683.137,2.472.956,5.174.322,1.055.683,2.251,1.071,3.619a32.874,32.874,0,0,0,6.42,11.97,1.166,1.166,0,0,0,.912.41c.374-.071.631-.576.82-.947a2.1,2.1,0,0,1,.254-.428,2.9,2.9,0,0,0,.321-.6c.22-.49.428-.956.82-.992a.434.434,0,0,1,.366.137c.247.253.217.8.146,1.354-.025.2.038,1.113.1,1.81a23.891,23.891,0,0,1,2.814-.557,15.516,15.516,0,0,1,9.05,1.329l.273.116a6.348,6.348,0,0,1,2.885,1.888c.175.273.313.546.146.75-.2.245-.576.093-1.143-.137l-.234-.093c-.744-.29-5.681-1.85-6.758-2.157-.391-.112-.56-.072-.6-.038v.008a28.276,28.276,0,0,1,6.967,3.106,14.849,14.849,0,0,1,2.354,2.232.885.885,0,0,1,.178.683.5.5,0,0,1-.273.324c-.254.126-.6-.023-1.15-.287a3.973,3.973,0,0,0-.423-.19c-.4-.137-4.371-2.143-5.221-2.589-.447-.232-.6-.206-.632-.2.321.24,1.912,1.075,2.981,1.639.844.444,1.572.826,1.851,1a3.036,3.036,0,0,1,1.274,1.161.452.452,0,0,1,0,.464c-.153.249-.527.3-1.164.3a26.053,26.053,0,0,1-4.855-1.617c-.433-.167-.828-.32-1.152-.441-.273-.1-.508-.178-.712-.235,1.723.844,4.756,2.334,5.191,2.571.288.154.466.273.515.464a.463.463,0,0,1-.093.381,1,1,0,0,0-.066.119C118.113,113.431,117.878,113.508,117.551,113.508Zm-10.067-2.362a23.427,23.427,0,0,1,5.5.664c.318.083.806.253,1.321.432a16.347,16.347,0,0,0,2.049.624l.249.041a3.415,3.415,0,0,0,1.179.083.77.77,0,0,1,.085-.164v-.01a1.868,1.868,0,0,0-.246-.15c-.6-.321-6.3-3.112-6.359-3.142l-.422-.208.41-.224c.092-.049.632-.273,2.284.354.324.12.72.273,1.156.443a30.43,30.43,0,0,0,4.68,1.583,2.621,2.621,0,0,0,.717-.059,2.6,2.6,0,0,0-1.093-.956c-.265-.163-1.022-.56-1.824-.982-3.054-1.605-3.19-1.723-3.229-1.912a.533.533,0,0,1,.179-.546c.235-.178.613-.126,1.152.156,1.085.566,4.822,2.448,5.151,2.557a4.913,4.913,0,0,1,.481.213,2.853,2.853,0,0,0,.738.284c.01-.025,0-.13-.111-.3a14.924,14.924,0,0,0-2.218-2.1,26.931,26.931,0,0,0-6.967-3.067l-.145-.023-.046-.137a.65.65,0,0,1,.116-.626c.2-.21.557-.242,1.08-.093,1.112.318,6.023,1.87,6.8,2.172l.238.094c.137.055.311.126.454.173-.012-.022-.029-.045-.045-.072a6.038,6.038,0,0,0-2.669-1.706l-.273-.12a15.053,15.053,0,0,0-8.782-1.292,19.029,19.029,0,0,0-3.005.635l-.31.137-.03-.339c-.018-.191-.164-1.874-.122-2.216.1-.777.015-.937-.012-.967a2.979,2.979,0,0,0-.389.721,3.052,3.052,0,0,1-.4.724,2.094,2.094,0,0,0-.184.324c-.219.434-.546,1.093-1.162,1.2a1.58,1.58,0,0,1-1.326-.529c-1.672-1.5-5.143-7.126-6.565-12.2-.381-1.366-.746-2.556-1.067-3.608-.922-3.026-1.432-4.694-.91-5.566h0A8.555,8.555,0,0,1,96.8,79.012l.049-.026c.49-.258,1.794-.947,1.942-1.533a.344.344,0,0,0-.052-.29c-.613-.919-5.483-6.109-8.695-6.967H89.8a3.784,3.784,0,0,0-1.6.316,22.949,22.949,0,0,0-4.976,5.678c-.172.273-.346.529-.514.784-1.442,2.186-2.58,3.915-1.449,5.59l.171.253A64.379,64.379,0,0,1,87.5,93.6c2.438,5.542,8.606,11.843,8.66,11.9.339.339,2.041,1.85,2.6,2.347l.152.137c.079.07.213.206.382.378a8.706,8.706,0,0,0,2.385,1.938,16.878,16.878,0,0,0,5.48.848Z" transform="translate(-80.066 -21.786)"/>
    <path class="a" d="M138.6,116.755a1.24,1.24,0,0,1-.137,0,.357.357,0,0,1-.35-.258c-.071-.273.273-.669,1.014-1.165a2.582,2.582,0,0,0,.8-1.081,14.26,14.26,0,0,0-1.605.168,7.714,7.714,0,0,1-.77.092.425.425,0,0,1-.428-.288.956.956,0,0,1,.41-.926,4.531,4.531,0,0,0,1.283-1.313,4.543,4.543,0,0,0-.917.1,2.225,2.225,0,0,1-1.209.033.443.443,0,0,1-.245-.355c-.042-.445.6-1.011.878-1.229a6.966,6.966,0,0,0,1.074-.973c-.137-.022-.351-.033-.507-.042a3.75,3.75,0,0,1-.9-.116c-.336-.112-.418-.3-.428-.441-.019-.273.224-.533.723-.783.183-.092.459-.2.777-.317a5.144,5.144,0,0,0,1.6-.791l.443.2c-.171.376-.882.669-1.87,1.044-.294.112-.572.217-.734.3a1.366,1.366,0,0,0-.433.3.489.489,0,0,0,.075.03,3.517,3.517,0,0,0,.772.093c.561.03.969.052,1.025.385.042.254-.154.568-1.314,1.5a1.959,1.959,0,0,0-.7.809,6.314,6.314,0,0,0,.892-.113c.683-.113,1.106-.173,1.341.008a.377.377,0,0,1,.148.273c.055.6-1.123,1.537-1.485,1.81a.652.652,0,0,0-.231.335c.137-.008.4-.046.663-.083,1.391-.2,1.888-.235,2.091-.059l.085.072.019.152a2.732,2.732,0,0,1-1.048,1.631,4.713,4.713,0,0,0-.671.534,5.7,5.7,0,0,0,3.348-1.441l.339.35a6.155,6.155,0,0,1-3.817,1.569Z" transform="translate(-81.624 -22.828)"/></g><g class="b" transform="translate(608 331)"><rect class="c" width="203" height="284" rx="4"/><rect class="d" x="0.5" y="0.5" width="202" height="283" rx="3.5"/></g></g></svg>